<svg width="140" height="218" viewBox="0 0 140 218" fill="none" xmlns="http://www.w3.org/2000/svg">
<rect width="140" height="218" rx="14" fill="white"/>
<path d="M42.0042 139.59C41.8042 138.75 41.4542 138.12 40.9542 137.7C40.4742 137.28 39.7742 137.07 38.8542 137.07C37.4742 137.07 36.4542 137.63 35.7942 138.75C35.1542 139.85 34.8242 141.65 34.8042 144.15C35.2842 143.35 35.9842 142.73 36.9042 142.29C37.8242 141.83 38.8242 141.6 39.9042 141.6C41.2042 141.6 42.3542 141.88 43.3542 142.44C44.3542 143 45.1342 143.82 45.6942 144.9C46.2542 145.96 46.5342 147.24 46.5342 148.74C46.5342 150.16 46.2442 151.43 45.6642 152.55C45.1042 153.65 44.2742 154.51 43.1742 155.13C42.0742 155.75 40.7642 156.06 39.2442 156.06C37.1642 156.06 35.5242 155.6 34.3242 154.68C33.1442 153.76 32.3142 152.48 31.8342 150.84C31.3742 149.18 31.1442 147.14 31.1442 144.72C31.1442 141.06 31.7742 138.3 33.0342 136.44C34.2942 134.56 36.2842 133.62 39.0042 133.62C41.1042 133.62 42.7342 134.19 43.8942 135.33C45.0542 136.47 45.7242 137.89 45.9042 139.59H42.0042ZM38.9442 145.05C37.8842 145.05 36.9942 145.36 36.2742 145.98C35.5542 146.6 35.1942 147.5 35.1942 148.68C35.1942 149.86 35.5242 150.79 36.1842 151.47C36.8642 152.15 37.8142 152.49 39.0342 152.49C40.1142 152.49 40.9642 152.16 41.5842 151.5C42.2242 150.84 42.5442 149.95 42.5442 148.83C42.5442 147.67 42.2342 146.75 41.6142 146.07C41.0142 145.39 40.1242 145.05 38.9442 145.05ZM49.8537 144.78C49.8537 141.32 50.4737 138.61 51.7137 136.65C52.9737 134.69 55.0537 133.71 57.9537 133.71C60.8537 133.71 62.9237 134.69 64.1637 136.65C65.4237 138.61 66.0537 141.32 66.0537 144.78C66.0537 148.26 65.4237 150.99 64.1637 152.97C62.9237 154.95 60.8537 155.94 57.9537 155.94C55.0537 155.94 52.9737 154.95 51.7137 152.97C50.4737 150.99 49.8537 148.26 49.8537 144.78ZM61.9137 144.78C61.9137 143.3 61.8137 142.06 61.6137 141.06C61.4337 140.04 61.0537 139.21 60.4737 138.57C59.9137 137.93 59.0737 137.61 57.9537 137.61C56.8337 137.61 55.9837 137.93 55.4037 138.57C54.8437 139.21 54.4637 140.04 54.2637 141.06C54.0837 142.06 53.9937 143.3 53.9937 144.78C53.9937 146.3 54.0837 147.58 54.2637 148.62C54.4437 149.64 54.8237 150.47 55.4037 151.11C55.9837 151.73 56.8337 152.04 57.9537 152.04C59.0737 152.04 59.9237 151.73 60.5037 151.11C61.0837 150.47 61.4637 149.64 61.6437 148.62C61.8237 147.58 61.9137 146.3 61.9137 144.78ZM69.2482 144.78C69.2482 141.32 69.8682 138.61 71.1082 136.65C72.3682 134.69 74.4482 133.71 77.3482 133.71C80.2482 133.71 82.3182 134.69 83.5582 136.65C84.8182 138.61 85.4482 141.32 85.4482 144.78C85.4482 148.26 84.8182 150.99 83.5582 152.97C82.3182 154.95 80.2482 155.94 77.3482 155.94C74.4482 155.94 72.3682 154.95 71.1082 152.97C69.8682 150.99 69.2482 148.26 69.2482 144.78ZM81.3082 144.78C81.3082 143.3 81.2082 142.06 81.0082 141.06C80.8282 140.04 80.4482 139.21 79.8682 138.57C79.3082 137.93 78.4682 137.61 77.3482 137.61C76.2282 137.61 75.3782 137.93 74.7982 138.57C74.2382 139.21 73.8582 140.04 73.6582 141.06C73.4782 142.06 73.3882 143.3 73.3882 144.78C73.3882 146.3 73.4782 147.58 73.6582 148.62C73.8382 149.64 74.2182 150.47 74.7982 151.11C75.3782 151.73 76.2282 152.04 77.3482 152.04C78.4682 152.04 79.3182 151.73 79.8982 151.11C80.4782 150.47 80.8582 149.64 81.0382 148.62C81.2182 147.58 81.3082 146.3 81.3082 144.78ZM88.1627 139.5C88.1627 137.98 88.6027 136.79 89.4827 135.93C90.3827 135.07 91.5327 134.64 92.9327 134.64C94.3327 134.64 95.4727 135.07 96.3527 135.93C97.2527 136.79 97.7027 137.98 97.7027 139.5C97.7027 141.04 97.2527 142.24 96.3527 143.1C95.4727 143.96 94.3327 144.39 92.9327 144.39C91.5327 144.39 90.3827 143.96 89.4827 143.1C88.6027 142.24 88.1627 141.04 88.1627 139.5ZM107.423 135L95.6327 156H91.5527L103.313 135H107.423ZM92.9027 137.16C91.8027 137.16 91.2527 137.94 91.2527 139.5C91.2527 141.08 91.8027 141.87 92.9027 141.87C93.4427 141.87 93.8627 141.68 94.1627 141.3C94.4627 140.9 94.6127 140.3 94.6127 139.5C94.6127 137.94 94.0427 137.16 92.9027 137.16ZM101.333 151.47C101.333 149.93 101.773 148.74 102.653 147.9C103.553 147.04 104.703 146.61 106.103 146.61C107.503 146.61 108.633 147.04 109.493 147.9C110.373 148.74 110.813 149.93 110.813 151.47C110.813 153.01 110.373 154.21 109.493 155.07C108.633 155.93 107.503 156.36 106.103 156.36C104.683 156.36 103.533 155.93 102.653 155.07C101.773 154.21 101.333 153.01 101.333 151.47ZM106.073 149.13C104.933 149.13 104.363 149.91 104.363 151.47C104.363 153.05 104.933 153.84 106.073 153.84C107.193 153.84 107.753 153.05 107.753 151.47C107.753 149.91 107.193 149.13 106.073 149.13Z" fill="#F66F4D"/>
<path d="M20.1064 190H15.8422V176.182H20.2954C21.6358 176.182 22.7828 176.458 23.7364 177.012C24.69 177.56 25.421 178.35 25.9292 179.38C26.4375 180.406 26.6917 181.634 26.6917 183.064C26.6917 184.503 26.4353 185.743 25.9225 186.782C25.4097 187.816 24.663 188.612 23.6824 189.17C22.7019 189.723 21.5099 190 20.1064 190ZM17.5155 188.516H19.9985C21.141 188.516 22.0879 188.295 22.839 187.854C23.5902 187.414 24.1502 186.786 24.5191 185.972C24.8879 185.158 25.0724 184.188 25.0724 183.064C25.0724 181.948 24.8902 180.988 24.5258 180.183C24.1615 179.373 23.6172 178.752 22.893 178.321C22.1688 177.884 21.267 177.666 20.1874 177.666H17.5155V188.516ZM33.6278 190.216C32.6292 190.216 31.7678 189.996 31.0436 189.555C30.3239 189.109 29.7684 188.489 29.377 187.692C28.9902 186.892 28.7968 185.961 28.7968 184.899C28.7968 183.838 28.9902 182.902 29.377 182.092C29.7684 181.278 30.3126 180.644 31.0099 180.19C31.7116 179.731 32.5302 179.501 33.4658 179.501C34.0056 179.501 34.5386 179.591 35.0649 179.771C35.5912 179.951 36.0702 180.244 36.502 180.648C36.9339 181.049 37.278 181.58 37.5344 182.241C37.7907 182.902 37.9189 183.716 37.9189 184.683V185.358H29.9303V183.982H36.2996C36.2996 183.397 36.1827 182.875 35.9488 182.416C35.7194 181.957 35.391 181.595 34.9637 181.33C34.5409 181.065 34.0416 180.932 33.4658 180.932C32.8316 180.932 32.2828 181.089 31.8195 181.404C31.3607 181.714 31.0076 182.119 30.7602 182.619C30.5128 183.118 30.3891 183.653 30.3891 184.224V185.142C30.3891 185.925 30.5241 186.588 30.7939 187.132C31.0683 187.672 31.4484 188.084 31.9342 188.367C32.42 188.646 32.9845 188.786 33.6278 188.786C34.0461 188.786 34.4239 188.727 34.7613 188.61C35.1031 188.489 35.3978 188.309 35.6452 188.07C35.8925 187.827 36.0837 187.526 36.2187 187.166L37.757 187.598C37.5951 188.12 37.3229 188.579 36.9406 188.974C36.5583 189.366 36.086 189.672 35.5237 189.892C34.9614 190.108 34.3295 190.216 33.6278 190.216ZM47.6821 181.957L46.2517 182.362C46.1617 182.124 46.029 181.892 45.8536 181.667C45.6827 181.438 45.4488 181.249 45.1519 181.1C44.855 180.952 44.4749 180.878 44.0116 180.878C43.3774 180.878 42.8489 181.024 42.426 181.316C42.0077 181.604 41.7986 181.971 41.7986 182.416C41.7986 182.812 41.9425 183.125 42.2304 183.354C42.5183 183.583 42.9681 183.775 43.5798 183.928L45.1182 184.305C46.0448 184.53 46.7352 184.874 47.1895 185.338C47.6439 185.797 47.871 186.388 47.871 187.112C47.871 187.706 47.7001 188.237 47.3582 188.705C47.0209 189.172 46.5486 189.541 45.9413 189.811C45.3341 190.081 44.6279 190.216 43.8227 190.216C42.7657 190.216 41.8908 189.987 41.1981 189.528C40.5054 189.069 40.0668 188.399 39.8824 187.517L41.3937 187.139C41.5377 187.697 41.8098 188.115 42.2101 188.394C42.615 188.673 43.1435 188.812 43.7957 188.812C44.5379 188.812 45.1272 188.655 45.5635 188.34C46.0043 188.021 46.2247 187.638 46.2247 187.193C46.2247 186.833 46.0988 186.532 45.8469 186.289C45.595 186.042 45.2081 185.857 44.6863 185.736L42.9591 185.331C42.01 185.106 41.3128 184.757 40.8675 184.285C40.4266 183.808 40.2062 183.212 40.2062 182.497C40.2062 181.912 40.3704 181.395 40.6988 180.945C41.0316 180.496 41.4837 180.142 42.055 179.886C42.6307 179.63 43.2829 179.501 44.0116 179.501C45.0372 179.501 45.8424 179.726 46.4271 180.176C47.0164 180.626 47.4347 181.22 47.6821 181.957ZM54.775 179.636V180.986H49.4043V179.636H54.775ZM50.9696 177.153H52.562V187.031C52.562 187.481 52.6272 187.818 52.7576 188.043C52.8926 188.264 53.0635 188.412 53.2704 188.489C53.4818 188.561 53.7045 188.597 53.9384 188.597C54.1138 188.597 54.2578 188.588 54.3702 188.57C54.4827 188.547 54.5726 188.529 54.6401 188.516L54.964 189.946C54.856 189.987 54.7053 190.027 54.5119 190.067C54.3185 190.112 54.0733 190.135 53.7765 190.135C53.3266 190.135 52.8858 190.038 52.454 189.845C52.0267 189.651 51.6713 189.357 51.388 188.961C51.1091 188.565 50.9696 188.066 50.9696 187.463V177.153ZM57.1703 190V179.636H58.7626V190H57.1703ZM57.9799 177.909C57.6696 177.909 57.4019 177.803 57.177 177.592C56.9566 177.381 56.8464 177.126 56.8464 176.83C56.8464 176.533 56.9566 176.279 57.177 176.067C57.4019 175.856 57.6696 175.75 57.9799 175.75C58.2903 175.75 58.5557 175.856 58.7761 176.067C59.001 176.279 59.1135 176.533 59.1135 176.83C59.1135 177.126 59.001 177.381 58.7761 177.592C58.5557 177.803 58.2903 177.909 57.9799 177.909ZM63.2714 183.766V190H61.6791V179.636H63.2174V181.256H63.3524C63.5953 180.729 63.9641 180.307 64.4589 179.987C64.9537 179.663 65.5924 179.501 66.3751 179.501C67.0768 179.501 67.6908 179.645 68.2171 179.933C68.7433 180.217 69.1527 180.648 69.445 181.229C69.7374 181.804 69.8836 182.533 69.8836 183.415V190H68.2913V183.523C68.2913 182.709 68.0799 182.074 67.657 181.62C67.2342 181.161 66.654 180.932 65.9163 180.932C65.408 180.932 64.9537 181.042 64.5534 181.262C64.1575 181.483 63.8449 181.804 63.6155 182.227C63.3861 182.65 63.2714 183.163 63.2714 183.766ZM75.843 190.243C75.1863 190.243 74.5903 190.119 74.055 189.872C73.5198 189.62 73.0947 189.258 72.7798 188.786C72.465 188.309 72.3075 187.733 72.3075 187.058C72.3075 186.464 72.4245 185.983 72.6584 185.614C72.8923 185.241 73.2049 184.949 73.5962 184.737C73.9876 184.526 74.4194 184.368 74.8917 184.265C75.3685 184.157 75.8475 184.071 76.3288 184.009C76.9586 183.928 77.4691 183.867 77.8604 183.826C78.2563 183.781 78.5442 183.707 78.7241 183.604C78.9085 183.5 79.0007 183.32 79.0007 183.064V183.01C79.0007 182.344 78.8185 181.827 78.4542 181.458C78.0943 181.089 77.5478 180.905 76.8146 180.905C76.0545 180.905 75.4585 181.071 75.0266 181.404C74.5948 181.737 74.2912 182.092 74.1158 182.47L72.6044 181.93C72.8743 181.301 73.2341 180.81 73.6839 180.46C74.1383 180.104 74.633 179.857 75.1683 179.717C75.7081 179.573 76.2389 179.501 76.7607 179.501C77.0935 179.501 77.4759 179.542 77.9077 179.623C78.344 179.699 78.7646 179.859 79.1694 180.102C79.5787 180.345 79.9183 180.711 80.1882 181.202C80.4581 181.692 80.593 182.349 80.593 183.172V190H79.0007V188.597H78.9197C78.8118 188.821 78.6319 189.062 78.38 189.319C78.1281 189.575 77.793 189.793 77.3746 189.973C76.9563 190.153 76.4458 190.243 75.843 190.243ZM76.0859 188.812C76.7157 188.812 77.2464 188.689 77.6783 188.441C78.1146 188.194 78.4429 187.875 78.6634 187.483C78.8883 187.092 79.0007 186.68 79.0007 186.249V184.791C78.9332 184.872 78.7848 184.946 78.5554 185.014C78.3305 185.077 78.0696 185.133 77.7727 185.183C77.4804 185.228 77.1947 185.268 76.9158 185.304C76.6415 185.335 76.4188 185.362 76.2479 185.385C75.834 185.439 75.4472 185.527 75.0874 185.648C74.732 185.765 74.4441 185.943 74.2237 186.181C74.0078 186.415 73.8999 186.734 73.8999 187.139C73.8999 187.692 74.1045 188.111 74.5138 188.394C74.9277 188.673 75.4517 188.812 76.0859 188.812ZM88.0065 179.636V180.986H82.6357V179.636H88.0065ZM84.2011 177.153H85.7934V187.031C85.7934 187.481 85.8586 187.818 85.9891 188.043C86.124 188.264 86.295 188.412 86.5019 188.489C86.7133 188.561 86.9359 188.597 87.1698 188.597C87.3453 188.597 87.4892 188.588 87.6017 188.57C87.7141 188.547 87.8041 188.529 87.8715 188.516L88.1954 189.946C88.0874 189.987 87.9368 190.027 87.7433 190.067C87.5499 190.112 87.3048 190.135 87.0079 190.135C86.5581 190.135 86.1173 190.038 85.6855 189.845C85.2581 189.651 84.9028 189.357 84.6194 188.961C84.3405 188.565 84.2011 188.066 84.2011 187.463V177.153ZM90.4017 190V179.636H91.9941V190H90.4017ZM91.2114 177.909C90.901 177.909 90.6334 177.803 90.4085 177.592C90.1881 177.381 90.0779 177.126 90.0779 176.83C90.0779 176.533 90.1881 176.279 90.4085 176.067C90.6334 175.856 90.901 175.75 91.2114 175.75C91.5218 175.75 91.7871 175.856 92.0075 176.067C92.2325 176.279 92.3449 176.533 92.3449 176.83C92.3449 177.126 92.2325 177.381 92.0075 177.592C91.7871 177.803 91.5218 177.909 91.2114 177.909ZM99.1207 190.216C98.1851 190.216 97.3642 189.993 96.658 189.548C95.9563 189.103 95.4076 188.48 95.0117 187.679C94.6204 186.878 94.4247 185.943 94.4247 184.872C94.4247 183.793 94.6204 182.85 95.0117 182.045C95.4076 181.24 95.9563 180.615 96.658 180.169C97.3642 179.724 98.1851 179.501 99.1207 179.501C100.056 179.501 100.875 179.724 101.577 180.169C102.283 180.615 102.832 181.24 103.223 182.045C103.619 182.85 103.817 183.793 103.817 184.872C103.817 185.943 103.619 186.878 103.223 187.679C102.832 188.48 102.283 189.103 101.577 189.548C100.875 189.993 100.056 190.216 99.1207 190.216ZM99.1207 188.786C99.8314 188.786 100.416 188.603 100.875 188.239C101.334 187.875 101.673 187.396 101.894 186.802C102.114 186.208 102.224 185.565 102.224 184.872C102.224 184.179 102.114 183.534 101.894 182.936C101.673 182.337 101.334 181.854 100.875 181.485C100.416 181.116 99.8314 180.932 99.1207 180.932C98.41 180.932 97.8253 181.116 97.3665 181.485C96.9077 181.854 96.5681 182.337 96.3477 182.936C96.1272 183.534 96.017 184.179 96.017 184.872C96.017 185.565 96.1272 186.208 96.3477 186.802C96.5681 187.396 96.9077 187.875 97.3665 188.239C97.8253 188.603 98.41 188.786 99.1207 188.786ZM107.84 183.766V190H106.247V179.636H107.786V181.256H107.921C108.164 180.729 108.532 180.307 109.027 179.987C109.522 179.663 110.161 179.501 110.943 179.501C111.645 179.501 112.259 179.645 112.785 179.933C113.312 180.217 113.721 180.648 114.013 181.229C114.306 181.804 114.452 182.533 114.452 183.415V190H112.86V183.523C112.86 182.709 112.648 182.074 112.225 181.62C111.803 181.161 111.222 180.932 110.485 180.932C109.976 180.932 109.522 181.042 109.122 181.262C108.726 181.483 108.413 181.804 108.184 182.227C107.954 182.65 107.84 183.163 107.84 183.766ZM124.703 181.957L123.272 182.362C123.182 182.124 123.05 181.892 122.874 181.667C122.703 181.438 122.469 181.249 122.172 181.1C121.876 180.952 121.495 180.878 121.032 180.878C120.398 180.878 119.869 181.024 119.447 181.316C119.028 181.604 118.819 181.971 118.819 182.416C118.819 182.812 118.963 183.125 119.251 183.354C119.539 183.583 119.989 183.775 120.6 183.928L122.139 184.305C123.065 184.53 123.756 184.874 124.21 185.338C124.664 185.797 124.892 186.388 124.892 187.112C124.892 187.706 124.721 188.237 124.379 188.705C124.041 189.172 123.569 189.541 122.962 189.811C122.355 190.081 121.648 190.216 120.843 190.216C119.786 190.216 118.911 189.987 118.219 189.528C117.526 189.069 117.087 188.399 116.903 187.517L118.414 187.139C118.558 187.697 118.83 188.115 119.231 188.394C119.635 188.673 120.164 188.812 120.816 188.812C121.558 188.812 122.148 188.655 122.584 188.34C123.025 188.021 123.245 187.638 123.245 187.193C123.245 186.833 123.119 186.532 122.867 186.289C122.615 186.042 122.229 185.857 121.707 185.736L119.98 185.331C119.03 185.106 118.333 184.757 117.888 184.285C117.447 183.808 117.227 183.212 117.227 182.497C117.227 181.912 117.391 181.395 117.719 180.945C118.052 180.496 118.504 180.142 119.075 179.886C119.651 179.63 120.303 179.501 121.032 179.501C122.058 179.501 122.863 179.726 123.448 180.176C124.037 180.626 124.455 181.22 124.703 181.957Z" fill="#939597"/>
<circle cx="70" cy="60" r="40" fill="url(#paint0_linear_221_176)"/>
<path fill-rule="evenodd" clip-rule="evenodd" d="M70 84.6176C70 84.6176 89 71.4853 89 55C89 44.5066 80.4935 36 70 36C59.5065 36 51 44.5066 51 55C51 71.2059 70 84.6176 70 84.6176ZM72.5092 52.1051L70 44.3824L67.4908 52.1051H59.3706L65.9398 56.878L63.4305 64.6008L70 59.8279L76.5695 64.6008L74.0602 56.878L80.6294 52.1051H72.5092Z" fill="#2D3134"/>
<defs>
<linearGradient id="paint0_linear_221_176" x1="70" y1="20" x2="100.5" y2="141.5" gradientUnits="userSpaceOnUse">
<stop stop-color="#FFECC9"/>
<stop offset="1" stop-color="#FFD482"/>
</linearGradient>
</defs>
</svg>
