<svg width="285" height="185" viewBox="0 0 285 185" fill="none" xmlns="http://www.w3.org/2000/svg">
<g filter="url(#filter0_d_221_166)">
<rect x="47" y="43" width="171" height="92" rx="10" fill="white"/>
</g>
<path d="M120.608 70.976H111.536V75.764C111.928 75.2787 112.488 74.8867 113.216 74.588C113.944 74.2707 114.719 74.112 115.54 74.112C117.034 74.112 118.256 74.4387 119.208 75.092C120.16 75.7453 120.851 76.5853 121.28 77.612C121.71 78.62 121.924 79.7027 121.924 80.86C121.924 83.0067 121.308 84.7333 120.076 86.04C118.863 87.3467 117.127 88 114.868 88C112.74 88 111.042 87.468 109.772 86.404C108.503 85.34 107.784 83.9493 107.616 82.232H111.424C111.592 82.9787 111.966 83.576 112.544 84.024C113.142 84.472 113.898 84.696 114.812 84.696C115.914 84.696 116.744 84.3507 117.304 83.66C117.864 82.9693 118.144 82.0547 118.144 80.916C118.144 79.7587 117.855 78.8813 117.276 78.284C116.716 77.668 115.886 77.36 114.784 77.36C114 77.36 113.347 77.556 112.824 77.948C112.302 78.34 111.928 78.8627 111.704 79.516H107.952V67.532H120.608V70.976ZM124.908 77.528C124.908 74.2987 125.486 71.7693 126.644 69.94C127.82 68.1107 129.761 67.196 132.468 67.196C135.174 67.196 137.106 68.1107 138.264 69.94C139.44 71.7693 140.028 74.2987 140.028 77.528C140.028 80.776 139.44 83.324 138.264 85.172C137.106 87.02 135.174 87.944 132.468 87.944C129.761 87.944 127.82 87.02 126.644 85.172C125.486 83.324 124.908 80.776 124.908 77.528ZM136.164 77.528C136.164 76.1467 136.07 74.9893 135.884 74.056C135.716 73.104 135.361 72.3293 134.82 71.732C134.297 71.1347 133.513 70.836 132.468 70.836C131.422 70.836 130.629 71.1347 130.088 71.732C129.565 72.3293 129.21 73.104 129.024 74.056C128.856 74.9893 128.772 76.1467 128.772 77.528C128.772 78.9467 128.856 80.1413 129.024 81.112C129.192 82.064 129.546 82.8387 130.088 83.436C130.629 84.0147 131.422 84.304 132.468 84.304C133.513 84.304 134.306 84.0147 134.848 83.436C135.389 82.8387 135.744 82.064 135.912 81.112C136.08 80.1413 136.164 78.9467 136.164 77.528ZM143.009 77.528C143.009 74.2987 143.588 71.7693 144.745 69.94C145.921 68.1107 147.863 67.196 150.569 67.196C153.276 67.196 155.208 68.1107 156.365 69.94C157.541 71.7693 158.129 74.2987 158.129 77.528C158.129 80.776 157.541 83.324 156.365 85.172C155.208 87.02 153.276 87.944 150.569 87.944C147.863 87.944 145.921 87.02 144.745 85.172C143.588 83.324 143.009 80.776 143.009 77.528ZM154.265 77.528C154.265 76.1467 154.172 74.9893 153.985 74.056C153.817 73.104 153.463 72.3293 152.921 71.732C152.399 71.1347 151.615 70.836 150.569 70.836C149.524 70.836 148.731 71.1347 148.189 71.732C147.667 72.3293 147.312 73.104 147.125 74.056C146.957 74.9893 146.873 76.1467 146.873 77.528C146.873 78.9467 146.957 80.1413 147.125 81.112C147.293 82.064 147.648 82.8387 148.189 83.436C148.731 84.0147 149.524 84.304 150.569 84.304C151.615 84.304 152.408 84.0147 152.949 83.436C153.491 82.8387 153.845 82.064 154.013 81.112C154.181 80.1413 154.265 78.9467 154.265 77.528ZM161.111 77.528C161.111 74.2987 161.69 71.7693 162.847 69.94C164.023 68.1107 165.964 67.196 168.671 67.196C171.378 67.196 173.31 68.1107 174.467 69.94C175.643 71.7693 176.231 74.2987 176.231 77.528C176.231 80.776 175.643 83.324 174.467 85.172C173.31 87.02 171.378 87.944 168.671 87.944C165.964 87.944 164.023 87.02 162.847 85.172C161.69 83.324 161.111 80.776 161.111 77.528ZM172.367 77.528C172.367 76.1467 172.274 74.9893 172.087 74.056C171.919 73.104 171.564 72.3293 171.023 71.732C170.5 71.1347 169.716 70.836 168.671 70.836C167.626 70.836 166.832 71.1347 166.291 71.732C165.768 72.3293 165.414 73.104 165.227 74.056C165.059 74.9893 164.975 76.1467 164.975 77.528C164.975 78.9467 165.059 80.1413 165.227 81.112C165.395 82.064 165.75 82.8387 166.291 83.436C166.832 84.0147 167.626 84.304 168.671 84.304C169.716 84.304 170.51 84.0147 171.051 83.436C171.592 82.8387 171.947 82.064 172.115 81.112C172.283 80.1413 172.367 78.9467 172.367 77.528ZM194.305 79.74H189.013V85.172H185.317V79.74H180.025V76.324H185.317V70.892H189.013V76.324H194.305V79.74Z" fill="#2D3134"/>
<path d="M105.776 108.812C105.776 107.996 105.96 107.264 106.328 106.616C106.696 105.96 107.196 105.448 107.828 105.08C108.468 104.712 109.176 104.528 109.952 104.528C110.864 104.528 111.66 104.748 112.34 105.188C113.02 105.628 113.516 106.252 113.828 107.06H112.52C112.288 106.556 111.952 106.168 111.512 105.896C111.08 105.624 110.56 105.488 109.952 105.488C109.368 105.488 108.844 105.624 108.38 105.896C107.916 106.168 107.552 106.556 107.288 107.06C107.024 107.556 106.892 108.14 106.892 108.812C106.892 109.476 107.024 110.06 107.288 110.564C107.552 111.06 107.916 111.444 108.38 111.716C108.844 111.988 109.368 112.124 109.952 112.124C110.56 112.124 111.08 111.992 111.512 111.728C111.952 111.456 112.288 111.068 112.52 110.564H113.828C113.516 111.364 113.02 111.984 112.34 112.424C111.66 112.856 110.864 113.072 109.952 113.072C109.176 113.072 108.468 112.892 107.828 112.532C107.196 112.164 106.696 111.656 106.328 111.008C105.96 110.36 105.776 109.628 105.776 108.812ZM121.285 106.424V113H120.193V112.028C119.985 112.364 119.693 112.628 119.317 112.82C118.949 113.004 118.541 113.096 118.093 113.096C117.581 113.096 117.121 112.992 116.713 112.784C116.305 112.568 115.981 112.248 115.741 111.824C115.509 111.4 115.393 110.884 115.393 110.276V106.424H116.473V110.132C116.473 110.78 116.637 111.28 116.965 111.632C117.293 111.976 117.741 112.148 118.309 112.148C118.893 112.148 119.353 111.968 119.689 111.608C120.025 111.248 120.193 110.724 120.193 110.036V106.424H121.285ZM125.457 113.108C124.953 113.108 124.501 113.024 124.101 112.856C123.701 112.68 123.385 112.44 123.153 112.136C122.921 111.824 122.793 111.468 122.769 111.068H123.897C123.929 111.396 124.081 111.664 124.353 111.872C124.633 112.08 124.997 112.184 125.445 112.184C125.861 112.184 126.189 112.092 126.429 111.908C126.669 111.724 126.789 111.492 126.789 111.212C126.789 110.924 126.661 110.712 126.405 110.576C126.149 110.432 125.753 110.292 125.217 110.156C124.729 110.028 124.329 109.9 124.017 109.772C123.713 109.636 123.449 109.44 123.225 109.184C123.009 108.92 122.901 108.576 122.901 108.152C122.901 107.816 123.001 107.508 123.201 107.228C123.401 106.948 123.685 106.728 124.053 106.568C124.421 106.4 124.841 106.316 125.313 106.316C126.041 106.316 126.629 106.5 127.077 106.868C127.525 107.236 127.765 107.74 127.797 108.38H126.705C126.681 108.036 126.541 107.76 126.285 107.552C126.037 107.344 125.701 107.24 125.277 107.24C124.885 107.24 124.573 107.324 124.341 107.492C124.109 107.66 123.993 107.88 123.993 108.152C123.993 108.368 124.061 108.548 124.197 108.692C124.341 108.828 124.517 108.94 124.725 109.028C124.941 109.108 125.237 109.2 125.613 109.304C126.085 109.432 126.469 109.56 126.765 109.688C127.061 109.808 127.313 109.992 127.521 110.24C127.737 110.488 127.849 110.812 127.857 111.212C127.857 111.572 127.757 111.896 127.557 112.184C127.357 112.472 127.073 112.7 126.705 112.868C126.345 113.028 125.929 113.108 125.457 113.108ZM130.731 107.324V111.2C130.731 111.52 130.799 111.748 130.935 111.884C131.071 112.012 131.307 112.076 131.643 112.076H132.447V113H131.463C130.855 113 130.399 112.86 130.095 112.58C129.791 112.3 129.639 111.84 129.639 111.2V107.324H128.787V106.424H129.639V104.768H130.731V106.424H132.447V107.324H130.731ZM136.638 113.108C136.022 113.108 135.462 112.968 134.958 112.688C134.462 112.408 134.07 112.012 133.782 111.5C133.502 110.98 133.362 110.38 133.362 109.7C133.362 109.028 133.506 108.436 133.794 107.924C134.09 107.404 134.49 107.008 134.994 106.736C135.498 106.456 136.062 106.316 136.686 106.316C137.31 106.316 137.874 106.456 138.378 106.736C138.882 107.008 139.278 107.4 139.566 107.912C139.862 108.424 140.01 109.02 140.01 109.7C140.01 110.38 139.858 110.98 139.554 111.5C139.258 112.012 138.854 112.408 138.342 112.688C137.83 112.968 137.262 113.108 136.638 113.108ZM136.638 112.148C137.03 112.148 137.398 112.056 137.742 111.872C138.086 111.688 138.362 111.412 138.57 111.044C138.786 110.676 138.894 110.228 138.894 109.7C138.894 109.172 138.79 108.724 138.582 108.356C138.374 107.988 138.102 107.716 137.766 107.54C137.43 107.356 137.066 107.264 136.674 107.264C136.274 107.264 135.906 107.356 135.57 107.54C135.242 107.716 134.978 107.988 134.778 108.356C134.578 108.724 134.478 109.172 134.478 109.7C134.478 110.236 134.574 110.688 134.766 111.056C134.966 111.424 135.23 111.7 135.558 111.884C135.886 112.06 136.246 112.148 136.638 112.148ZM149.353 106.304C149.865 106.304 150.321 106.412 150.721 106.628C151.121 106.836 151.437 107.152 151.669 107.576C151.901 108 152.017 108.516 152.017 109.124V113H150.937V109.28C150.937 108.624 150.773 108.124 150.445 107.78C150.125 107.428 149.689 107.252 149.137 107.252C148.569 107.252 148.117 107.436 147.781 107.804C147.445 108.164 147.277 108.688 147.277 109.376V113H146.197V109.28C146.197 108.624 146.033 108.124 145.705 107.78C145.385 107.428 144.949 107.252 144.397 107.252C143.829 107.252 143.377 107.436 143.041 107.804C142.705 108.164 142.537 108.688 142.537 109.376V113H141.445V106.424H142.537V107.372C142.753 107.028 143.041 106.764 143.401 106.58C143.769 106.396 144.173 106.304 144.613 106.304C145.165 106.304 145.653 106.428 146.077 106.676C146.501 106.924 146.817 107.288 147.025 107.768C147.209 107.304 147.513 106.944 147.937 106.688C148.361 106.432 148.833 106.304 149.353 106.304ZM153.401 109.688C153.401 109.016 153.537 108.428 153.809 107.924C154.081 107.412 154.453 107.016 154.925 106.736C155.405 106.456 155.937 106.316 156.521 106.316C157.097 106.316 157.597 106.44 158.021 106.688C158.445 106.936 158.761 107.248 158.969 107.624V106.424H160.073V113H158.969V111.776C158.753 112.16 158.429 112.48 157.997 112.736C157.573 112.984 157.077 113.108 156.509 113.108C155.925 113.108 155.397 112.964 154.925 112.676C154.453 112.388 154.081 111.984 153.809 111.464C153.537 110.944 153.401 110.352 153.401 109.688ZM158.969 109.7C158.969 109.204 158.869 108.772 158.669 108.404C158.469 108.036 158.197 107.756 157.853 107.564C157.517 107.364 157.145 107.264 156.737 107.264C156.329 107.264 155.957 107.36 155.621 107.552C155.285 107.744 155.017 108.024 154.817 108.392C154.617 108.76 154.517 109.192 154.517 109.688C154.517 110.192 154.617 110.632 154.817 111.008C155.017 111.376 155.285 111.66 155.621 111.86C155.957 112.052 156.329 112.148 156.737 112.148C157.145 112.148 157.517 112.052 157.853 111.86C158.197 111.66 158.469 111.376 158.669 111.008C158.869 110.632 158.969 110.196 158.969 109.7ZM163.01 107.492C163.202 107.116 163.474 106.824 163.826 106.616C164.186 106.408 164.622 106.304 165.134 106.304V107.432H164.846C163.622 107.432 163.01 108.096 163.01 109.424V113H161.918V106.424H163.01V107.492ZM168.723 113.108C168.219 113.108 167.767 113.024 167.367 112.856C166.967 112.68 166.651 112.44 166.419 112.136C166.187 111.824 166.059 111.468 166.035 111.068H167.163C167.195 111.396 167.347 111.664 167.619 111.872C167.899 112.08 168.263 112.184 168.711 112.184C169.127 112.184 169.455 112.092 169.695 111.908C169.935 111.724 170.055 111.492 170.055 111.212C170.055 110.924 169.927 110.712 169.671 110.576C169.415 110.432 169.019 110.292 168.483 110.156C167.995 110.028 167.595 109.9 167.283 109.772C166.979 109.636 166.715 109.44 166.491 109.184C166.275 108.92 166.167 108.576 166.167 108.152C166.167 107.816 166.267 107.508 166.467 107.228C166.667 106.948 166.951 106.728 167.319 106.568C167.687 106.4 168.107 106.316 168.579 106.316C169.307 106.316 169.895 106.5 170.343 106.868C170.791 107.236 171.031 107.74 171.063 108.38H169.971C169.947 108.036 169.807 107.76 169.551 107.552C169.303 107.344 168.967 107.24 168.543 107.24C168.151 107.24 167.839 107.324 167.607 107.492C167.375 107.66 167.259 107.88 167.259 108.152C167.259 108.368 167.327 108.548 167.463 108.692C167.607 108.828 167.783 108.94 167.991 109.028C168.207 109.108 168.503 109.2 168.879 109.304C169.351 109.432 169.735 109.56 170.031 109.688C170.327 109.808 170.579 109.992 170.787 110.24C171.003 110.488 171.115 110.812 171.123 111.212C171.123 111.572 171.023 111.896 170.823 112.184C170.623 112.472 170.339 112.7 169.971 112.868C169.611 113.028 169.195 113.108 168.723 113.108Z" fill="#5B5F62"/>
<g filter="url(#filter1_d_221_166)">
<rect x="63" y="64" width="30" height="30" rx="6" fill="url(#paint0_linear_221_166)" shape-rendering="crispEdges"/>
</g>
<path d="M78.0002 74.9094C77.3409 74.923 76.7084 75.173 76.218 75.6139C75.7276 76.0548 75.412 76.6572 75.3287 77.3113C75.2454 77.9655 75.3999 78.6278 75.764 79.1776C76.1282 79.7273 76.6778 80.1279 77.3127 80.3063V87.9719C77.3127 88.1543 77.3851 88.3291 77.514 88.4581C77.643 88.587 77.8178 88.6594 78.0002 88.6594C78.1825 88.6594 78.3574 88.587 78.4863 88.4581C78.6152 88.3291 78.6877 88.1543 78.6877 87.9719V80.3063C79.3225 80.1279 79.8721 79.7273 80.2363 79.1776C80.6005 78.6278 80.755 77.9655 80.6717 77.3113C80.5883 76.6572 80.2727 76.0548 79.7823 75.6139C79.292 75.173 78.6595 74.923 78.0002 74.9094Z" fill="#F66F4D"/>
<path d="M82.9498 71.9532C82.8106 71.8596 82.6419 71.8203 82.4756 71.8425C82.3093 71.8647 82.1569 71.9469 82.047 72.0737C81.9372 72.2004 81.8774 72.363 81.8791 72.5307C81.8808 72.6985 81.9437 72.8598 82.0561 72.9844C82.726 73.5652 83.2633 74.2833 83.6315 75.0899C83.9997 75.8964 84.1902 76.7727 84.1902 77.6594C84.1902 78.5461 83.9997 79.4224 83.6315 80.229C83.2633 81.0355 82.726 81.7536 82.0561 82.3344C81.9752 82.3887 81.9068 82.4595 81.8554 82.5423C81.804 82.625 81.7707 82.7177 81.7579 82.8142C81.745 82.9108 81.7527 83.0089 81.7807 83.1022C81.8086 83.1955 81.856 83.2818 81.9198 83.3554C81.9836 83.429 82.0623 83.4882 82.1507 83.5291C82.239 83.57 82.3351 83.5917 82.4325 83.5926C82.5299 83.5936 82.6264 83.5739 82.7156 83.5347C82.8047 83.4956 82.8846 83.438 82.9498 83.3657C83.766 82.6558 84.4205 81.7791 84.8689 80.7947C85.3174 79.8103 85.5494 78.7411 85.5494 77.6594C85.5494 76.5777 85.3174 75.5085 84.8689 74.5241C84.4205 73.5398 83.766 72.663 82.9498 71.9532ZM71.8123 77.6594C71.812 76.773 72.0021 75.8968 72.3698 75.0902C72.7375 74.2837 73.2742 73.5655 73.9436 72.9844C74.0559 72.8598 74.1189 72.6985 74.1205 72.5307C74.1222 72.363 74.0625 72.2004 73.9526 72.0737C73.8427 71.9469 73.6903 71.8647 73.524 71.8425C73.3578 71.8203 73.1891 71.8596 73.0498 71.9532C72.2336 72.663 71.5792 73.5398 71.1307 74.5241C70.6823 75.5085 70.4502 76.5777 70.4502 77.6594C70.4502 78.7411 70.6823 79.8103 71.1307 80.7947C71.5792 81.7791 72.2336 82.6558 73.0498 83.3657C73.1891 83.4592 73.3578 83.4985 73.524 83.4763C73.6903 83.4541 73.8427 83.3719 73.9526 83.2452C74.0625 83.1184 74.1222 82.9558 74.1205 82.7881C74.1189 82.6203 74.0559 82.459 73.9436 82.3344C73.2742 81.7533 72.7375 81.0351 72.3698 80.2286C72.0021 79.422 71.812 78.5458 71.8123 77.6594Z" fill="#F66F4D"/>
<path d="M85.3908 69.5126C85.3231 69.4516 85.244 69.4046 85.1581 69.3742C85.0722 69.3438 84.9812 69.3306 84.8902 69.3354C84.7993 69.3402 84.7101 69.3629 84.6279 69.4021C84.5457 69.4414 84.472 69.4964 84.4111 69.5641C84.3501 69.6318 84.3031 69.7109 84.2727 69.7968C84.2424 69.8826 84.2292 69.9737 84.234 70.0646C84.2388 70.1556 84.2614 70.2447 84.3006 70.327C84.3399 70.4092 84.3949 70.4829 84.4626 70.5438C85.4529 71.4458 86.244 72.5446 86.7853 73.7699C87.3266 74.9951 87.6062 76.3199 87.6062 77.6594C87.6062 78.9989 87.3266 80.3237 86.7853 81.549C86.244 82.7742 85.4529 83.873 84.4626 84.7751C84.3949 84.836 84.3399 84.9097 84.3006 84.9919C84.2614 85.0741 84.2388 85.1632 84.234 85.2542C84.2292 85.3452 84.2424 85.4362 84.2727 85.5221C84.3031 85.608 84.3501 85.687 84.4111 85.7547C84.472 85.8225 84.5457 85.8775 84.6279 85.9167C84.7101 85.956 84.7993 85.9786 84.8902 85.9834C84.9812 85.9882 85.0722 85.975 85.1581 85.9446C85.244 85.9143 85.3231 85.8672 85.3908 85.8063C86.5217 84.7755 87.4252 83.52 88.0433 82.1201C88.6615 80.7203 88.9808 79.2069 88.9808 77.6766C88.9808 76.1464 88.6615 74.6329 88.0433 73.2331C87.4252 71.8332 86.5217 70.5778 85.3908 69.5469V69.5126ZM68.3752 77.6594C68.3797 76.3188 68.6632 74.9939 69.2076 73.7688C69.7521 72.5438 70.5456 71.4455 71.5376 70.5438C71.6744 70.4207 71.7567 70.2484 71.7663 70.0646C71.776 69.8809 71.7123 69.7009 71.5892 69.5641C71.4661 69.4274 71.2938 69.3451 71.11 69.3354C70.9263 69.3258 70.7463 69.3895 70.6095 69.5126C69.4786 70.5434 68.5751 71.7989 67.957 73.1987C67.3388 74.5986 67.0195 76.112 67.0195 77.6422C67.0195 79.1725 67.3388 80.6859 67.957 82.0858C68.5751 83.4856 69.4786 84.7411 70.6095 85.7719C70.6772 85.8329 70.7563 85.8799 70.8422 85.9103C70.9281 85.9407 71.0191 85.9538 71.11 85.949C71.201 85.9443 71.2902 85.9216 71.3724 85.8824C71.4546 85.8431 71.5283 85.7881 71.5892 85.7204C71.6502 85.6527 71.6972 85.5736 71.7276 85.4877C71.7579 85.4018 71.7711 85.3108 71.7663 85.2198C71.7615 85.1289 71.7389 85.0397 71.6996 84.9575C71.6604 84.8753 71.6054 84.8016 71.5376 84.7407C70.5498 83.8429 69.7588 82.7502 69.2145 81.5314C68.6702 80.3126 68.3844 78.9942 68.3752 77.6594Z" fill="#F66F4D"/>
<defs>
<filter id="filter0_d_221_166" x="0" y="0" width="285" height="206" filterUnits="userSpaceOnUse" color-interpolation-filters="sRGB">
<feFlood flood-opacity="0" result="BackgroundImageFix"/>
<feColorMatrix in="SourceAlpha" type="matrix" values="0 0 0 0 0 0 0 0 0 0 0 0 0 0 0 0 0 0 127 0" result="hardAlpha"/>
<feMorphology radius="3" operator="erode" in="SourceAlpha" result="effect1_dropShadow_221_166"/>
<feOffset dx="10" dy="14"/>
<feGaussianBlur stdDeviation="30"/>
<feComposite in2="hardAlpha" operator="out"/>
<feColorMatrix type="matrix" values="0 0 0 0 0.68329 0 0 0 0 0.647369 0 0 0 0 0.449803 0 0 0 0.08 0"/>
<feBlend mode="normal" in2="BackgroundImageFix" result="effect1_dropShadow_221_166"/>
<feBlend mode="normal" in="SourceGraphic" in2="effect1_dropShadow_221_166" result="shape"/>
</filter>
<filter id="filter1_d_221_166" x="49" y="57" width="58" height="58" filterUnits="userSpaceOnUse" color-interpolation-filters="sRGB">
<feFlood flood-opacity="0" result="BackgroundImageFix"/>
<feColorMatrix in="SourceAlpha" type="matrix" values="0 0 0 0 0 0 0 0 0 0 0 0 0 0 0 0 0 0 127 0" result="hardAlpha"/>
<feMorphology radius="5" operator="erode" in="SourceAlpha" result="effect1_dropShadow_221_166"/>
<feOffset dy="7"/>
<feGaussianBlur stdDeviation="9.5"/>
<feComposite in2="hardAlpha" operator="out"/>
<feColorMatrix type="matrix" values="0 0 0 0 0.570718 0 0 0 0 0.389126 0 0 0 0 0 0 0 0 0.11 0"/>
<feBlend mode="normal" in2="BackgroundImageFix" result="effect1_dropShadow_221_166"/>
<feBlend mode="normal" in="SourceGraphic" in2="effect1_dropShadow_221_166" result="shape"/>
</filter>
<linearGradient id="paint0_linear_221_166" x1="78" y1="64" x2="94" y2="130" gradientUnits="userSpaceOnUse">
<stop stop-color="white"/>
<stop offset="1" stop-color="white" stop-opacity="0"/>
</linearGradient>
</defs>
</svg>
