<svg width="462" height="449" viewBox="0 0 462 449" fill="none" xmlns="http://www.w3.org/2000/svg">
<path d="M0.695879 166.633C2.75088 166.996 4.8101 167.332 6.86853 167.637C24.3542 170.23 41.7073 170.599 55.9292 166.993C60.3797 165.865 64.5136 164.351 68.2463 162.398C65.7313 153.816 62.9015 144.677 59.8121 134.903C57.7151 128.268 55.4995 121.343 53.1832 114.103C49.7635 103.414 46.1244 92.0399 42.3237 79.9018C42.8181 79.2573 43.3158 78.6154 43.8168 77.9761C47.7641 90.6012 51.5411 102.407 55.0843 113.482C57.4019 120.726 59.6194 127.657 61.7191 134.3C64.7561 143.909 67.5484 152.92 70.0404 161.407C77.3359 157.157 82.9262 151.071 86.106 142.712C91.1343 129.493 90.2287 110.358 80.0641 83.3523C75.6582 71.6463 72.0869 60.6173 69.2985 50.3208C69.85 49.8107 70.4038 49.3032 70.9602 48.7984C73.7664 59.3052 77.4044 70.6082 81.9359 82.6478C92.1712 109.842 93.2573 129.537 87.9753 143.423C84.5398 152.454 78.4501 158.931 70.6173 163.381C77.1467 185.83 81.5027 204.576 82.6227 220.994C84.1998 244.114 79.3649 262.667 65.2048 280.489C54.4729 293.997 38.4069 307.056 15.8114 321.394C15.5274 320.785 15.246 320.174 14.9671 319.561C37.3436 305.342 53.1314 292.47 63.6389 279.245C77.4476 261.865 82.1752 243.823 80.6273 221.131C79.5274 205.006 75.2613 186.557 68.8166 164.353C65.0217 166.299 60.8584 167.807 56.4208 168.932C41.8343 172.63 24.1833 172.226 6.57521 169.616C4.45839 169.302 2.34107 168.956 0.228577 168.581C0.38164 167.931 0.537411 167.281 0.695879 166.633Z" fill="#FAF8ED"/>
<path d="M380.669 400.929C366.31 387.288 348.956 369.264 327.763 346.176C320.389 338.142 313.692 330.475 307.629 323.144C255.57 356.653 201.534 395.017 163.966 448.008C163.288 447.815 162.611 447.618 161.935 447.418C199.693 393.897 254.12 355.21 306.346 321.586C275.356 283.802 261.343 255.038 258.219 231.255C254.439 202.47 266.633 181.193 283.409 160.373C286.249 156.848 289.216 153.34 292.259 149.811C277.534 143.256 262.328 132.76 246.77 118.511C225.342 98.8864 203.198 72.0999 180.67 38.5576C170.769 23.8167 161.223 11.2414 152.145 0.711528C152.824 0.477692 153.505 0.246888 154.187 0.0191345C163.174 10.4997 172.59 22.94 182.33 37.4425C204.802 70.9001 226.845 97.5512 248.121 117.036C263.776 131.374 278.99 141.808 293.628 148.229C295.352 146.24 297.099 144.243 298.858 142.232C312.032 127.166 325.918 111.286 336.696 91.8893C346.888 73.5465 354.268 52.0877 355.465 25.3114C356.115 25.7303 356.762 26.1523 357.406 26.5775C356.035 53.1204 348.636 74.5193 338.444 92.8607C327.557 112.454 313.447 128.592 300.222 143.716L300.204 143.737C298.642 145.523 297.093 147.294 295.563 149.056C300.16 150.968 304.7 152.481 309.178 153.592C328.456 158.373 346.63 155.707 363.432 145.222C380.264 134.718 395.784 116.324 409.611 89.5412C411.281 86.3064 413.135 83.3046 415.155 80.5278C415.578 81.0832 415.999 81.6406 416.417 82.1999C414.592 84.7585 412.911 87.5094 411.389 90.4587C397.466 117.426 381.736 136.157 364.49 146.919C347.214 157.699 328.482 160.44 308.697 155.533C303.917 154.348 299.077 152.717 294.184 150.647C290.997 154.334 287.904 157.982 284.966 161.627C268.304 182.307 256.53 203.03 260.202 230.995C263.262 254.292 277.059 282.761 308.04 320.497C316.312 315.183 324.524 309.994 332.601 304.891C341.261 299.419 349.765 294.045 358.021 288.722C393.751 265.684 424.778 243.627 443.87 218.651C451.397 208.802 457.055 198.517 460.414 187.554C460.635 189.036 460.843 190.523 461.036 192.015C457.52 201.795 452.216 211.024 445.459 219.865C426.128 245.155 394.812 267.379 359.104 290.403C350.83 295.738 342.317 301.119 333.657 306.592L333.653 306.595L333.647 306.598C325.641 311.658 317.509 316.798 309.324 322.054C315.319 329.296 321.942 336.876 329.237 344.824C350.49 367.978 367.855 386.007 382.192 399.617C381.687 400.057 381.179 400.494 380.669 400.929Z" fill="#FAF8ED"/>
</svg>
